<?xml version="1.0" encoding="utf-8"?>
<!DOCTYPE svg PUBLIC "-//W3C//DTD SVG 1.0//EN" "http://www.w3.org/TR/2001/REC-SVG-20010904/DTD/svg10.dtd">
<svg version="1.0" xmlns="http://www.w3.org/2000/svg" width="260px" height="260px" viewBox="0 0 260 260" preserveAspectRatio="xMidYMid meet">
 <g fill="#000000">
  <path d="M0 130 l0 -130 130 0 130 0 0 130 0 130 -130 0 -130 0 0 -130z m149.30 119.59 c5.36 -0.33 11.53 -0.99 14.73 -1.52 l2.67 -0.46 -4.82 0.15 c-7.49 0.28 -26.61 0.18 -32.25 -0.18 -12.67 -0.74 -23.21 -1.70 -39.41 -3.58 -4.77 -0.56 -8.76 -1.02 -8.89 -0.99 -0.56 0.05 5.43 1.63 9.95 2.62 11.81 2.62 23 3.81 39.48 4.16 8.46 0.20 12.82 0.15 18.54 -0.20z m17.77 -8.38 c22.32 -1.27 41.59 -5.41 51.04 -10.92 2.08 -1.22 2.62 -1.78 0.69 -0.76 -3.22 1.75 -11.22 3.94 -19.35 5.31 -7.19 1.22 -12.04 1.80 -21.33 2.59 -4.62 0.38 -31.64 0.41 -38.85 0.03 -18.59 -0.99 -27.85 -1.80 -50.91 -4.49 -17.14 -2.01 -19.37 -2.18 -27.80 -2.34 -9.93 -0.18 -17.93 0.41 -23.08 1.70 l-1.78 0.43 8.63 0.15 c11.65 0.18 19.65 0.91 47.20 4.27 20.77 2.51 32.96 3.61 45.96 4.11 4.98 0.20 25.70 0.13 29.58 -0.08z m13.74 -9.70 c-0.13 -0.33 -1.40 -3.28 -2.82 -6.55 -5.64 -12.97 -5.41 -12.37 -5.54 -14.63 -0.13 -2.39 0.18 -3.22 1.65 -4.34 0.84 -0.63 1.12 -0.71 2.97 -0.71 2.36 0 3.28 0.46 4.37 2.21 0.36 0.53 2.56 5.21 4.93 10.33 4.88 10.66 5.76 12.47 6.07 12.47 0.48 0 1.04 -0.33 1.04 -0.61 0 -0.15 -1.14 -3.07 -2.56 -6.50 -6.42 -15.69 -6.58 -16.10 -6.58 -18.59 0 -2.31 0.48 -3.20 2.18 -4.01 2.41 -1.12 5.61 -0.28 6.91 1.83 0.28 0.46 1.73 3.76 3.17 7.31 4.90 11.91 6.96 16.50 7.31 16.50 0.46 0 0.99 1.55 -6.42 -18.66 -1.60 -4.32 -3.28 -8.58 -3.73 -9.45 -1.73 -3.25 -4.21 -4.80 -9.70 -6.14 -3.86 -0.96 -5.48 -1.73 -6.86 -3.28 -1.24 -1.42 -4.70 -8.33 -8.05 -16.17 -2.95 -6.86 -3.35 -8.10 -3.35 -10.11 0 -2.67 -0.33 -2.56 8.73 -2.72 8.46 -0.15 8.86 -0.23 9.67 -1.80 0.48 -0.94 0.36 -1.45 -0.66 -2.41 l-0.76 -0.74 -9.85 -0.13 c-10.79 -0.13 -10.71 -0.13 -11.55 -1.73 -0.74 -1.40 -5.56 -14.52 -8.18 -22.27 -3 -8.79 -6.37 -21.66 -6.63 -25.31 l-0.15 -2.21 0.79 -0.76 0.76 -0.79 4.67 0 c5.28 0 6.02 -0.20 6.93 -1.85 0.46 -0.86 0.48 -0.99 0.13 -1.63 -0.23 -0.38 -0.76 -0.94 -1.19 -1.24 -0.76 -0.51 -1.22 -0.56 -6.73 -0.66 -6.55 -0.13 -7.19 -0.28 -7.97 -1.78 -0.74 -1.40 -3.50 -15.06 -5.31 -26.10 -1.80 -11.04 -3.10 -22.50 -2.79 -24.53 0.28 -1.88 0.43 -1.93 6.55 -2.11 5.03 -0.15 5.43 -0.18 6.17 -0.71 0.43 -0.30 0.94 -0.91 1.12 -1.32 0.25 -0.66 0.25 -0.89 -0.18 -1.60 -0.96 -1.68 -1.63 -1.85 -7.44 -1.93 -3 -0.05 -5.51 -0.18 -5.92 -0.36 -1.17 -0.46 -1.40 -1.27 -1.70 -6.32 -0.63 -10.74 -1.02 -15.56 -1.29 -16.55 -0.28 -1.04 -1.52 -2.46 -2.16 -2.46 -0.71 0 -1.65 0.63 -2.13 1.40 -0.79 1.29 -0.99 2.79 -1.52 12.44 -0.28 5.03 -0.63 9.50 -0.79 9.93 -0.53 1.70 -0.69 1.73 -7.19 1.88 -6.58 0.15 -7.13 0.28 -8.05 2.01 -0.46 0.84 -0.46 0.91 -0.03 1.63 0.23 0.43 0.76 0.99 1.14 1.29 0.66 0.48 1.14 0.53 6.27 0.66 7.01 0.15 6.75 0 6.70 3.88 -0.13 8.15 -6.07 44.97 -7.90 48.88 -0.71 1.50 -1.32 1.65 -7.69 1.75 -3.15 0.08 -6.02 0.23 -6.42 0.38 -0.86 0.33 -1.96 1.60 -1.96 2.29 0 0.76 0.99 2.01 1.93 2.39 0.61 0.25 2.03 0.36 5.03 0.36 2.31 0 4.47 0.10 4.80 0.23 1.65 0.63 1.55 3.58 -0.43 11.60 -2.67 10.77 -5.03 18.26 -9.67 30.70 -2.87 7.69 -3.55 9.19 -4.52 9.90 -0.69 0.48 -1.17 0.51 -10.46 0.63 -9.39 0.13 -9.78 0.15 -10.46 0.66 -1.52 1.14 -1.35 2.72 0.43 3.76 0.84 0.51 1.42 0.53 8.28 0.66 8.89 0.15 8.48 0 8.48 3 0 1.73 -0.13 2.26 -1.40 5.41 -1.68 4.21 -4.27 9.78 -7.13 15.51 -3 5.92 -3.35 6.25 -9.83 9.12 -3.76 1.65 -6.55 3.58 -9.09 6.27 -3.71 3.94 -6.32 8.96 -7.69 14.78 -1.14 4.80 -1.42 9.95 -0.56 10.61 0.15 0.13 5.46 0.30 11.81 0.38 9.65 0.13 11.63 0.10 12.21 -0.20 1.40 -0.74 4.14 -4.65 5.48 -7.79 2.21 -5.28 2.39 -10.51 0.56 -17.21 -0.71 -2.56 -0.81 -3.30 -0.81 -6.09 0 -3.76 0.15 -4.29 3.55 -11.38 3.25 -6.70 4.67 -9.88 6.68 -14.65 2.39 -5.71 2.79 -6.47 3.81 -7.16 l0.86 -0.58 27.50 0.05 27.50 0.08 0.76 0.74 c0.53 0.53 1.19 1.83 2.21 4.44 1.90 4.90 5.23 12.49 7.74 17.75 2.69 5.59 3.02 6.63 3.02 9.29 0 2.03 -0.05 2.26 -1.07 4.14 -2.18 4.11 -2.49 4.82 -2.77 6.30 -0.58 3.22 0.23 5.97 4.06 13.58 4.93 9.75 8.35 16 8.81 16 0.05 0 0 -0.25 -0.13 -0.56z m41.84 -5.92 l0 -0.51 -0.23 0.51 c-0.13 0.28 -0.23 0.69 -0.23 0.89 -0.03 0.33 0 0.33 0.23 0 0.13 -0.20 0.23 -0.61 0.23 -0.89z"/>
  <path d="M107.81 154.38 c-2.44 -0.46 -2.56 -2.59 -0.51 -8.51 4.65 -13.41 5.61 -16.25 7.08 -20.97 1.85 -5.99 3.30 -11.25 4.70 -17.32 0.56 -2.34 1.12 -4.47 1.27 -4.75 0.63 -1.19 1.19 -1.27 10.08 -1.27 7.69 0 8.38 0.03 9.12 0.48 0.99 0.61 1.17 1.04 2.26 5.99 1.90 8.66 3.83 14.90 11.65 37.68 1.19 3.45 1.42 4.42 1.42 5.89 0 1.96 -0.41 2.59 -1.83 2.87 -1.12 0.23 -44.05 0.13 -45.25 -0.10z"/>
  <path d="M124.69 95.62 c-1.50 -0.84 -1.60 -2.18 -0.53 -7.21 1.09 -5.13 3.43 -18.10 4.04 -22.22 0.58 -4.06 0.81 -4.49 2.44 -4.49 1.52 0 1.80 0.43 2.29 3.68 0.23 1.55 0.79 4.90 1.27 7.49 0.48 2.59 1.45 7.82 2.16 11.65 1.63 8.96 1.63 10.23 -0.03 11.10 -0.99 0.48 -10.71 0.51 -11.63 0z"/>
 </g>
 <g fill="#c3a052">
  <path d="M130 250.58 c-7.34 -0.18 -16.91 -0.74 -21.96 -1.24 -9.22 -0.96 -21.63 -3.53 -29.15 -6.02 -2.67 -0.89 -3.28 -1.40 -1.90 -1.55 0.36 -0.05 5.59 0.51 11.65 1.19 25.95 3 38.47 3.99 54.56 4.27 10.71 0.18 27.65 -0.48 29.76 -1.19 1.09 -0.36 6.58 -0.58 5.79 -0.25 -1.40 0.61 -7.74 2.06 -12.19 2.77 -11.02 1.78 -21.86 2.39 -36.56 2.03z"/>
  <path d="M136.73 242.05 c-13 -0.51 -25.19 -1.60 -45.96 -4.11 -16.22 -1.98 -26.81 -3.12 -35.93 -3.88 -6.07 -0.51 -20.08 -0.43 -24.50 0.13 -1.96 0.25 -3.78 0.53 -4.06 0.61 l-0.51 0.13 0.51 -0.51 c0.58 -0.58 2.64 -1.19 8 -2.36 8.84 -1.90 14.73 -2.39 26.46 -2.18 9.01 0.15 10.99 0.30 28.39 2.34 23 2.69 32.22 3.50 50.78 4.49 7.06 0.36 32.91 0.36 37.45 -0.03 12.77 -1.09 22.09 -2.44 29.99 -4.37 8.76 -2.11 13.71 -4.44 14.12 -6.65 0.18 -0.94 -0.43 -2.16 -1.32 -2.67 -1.35 -0.76 -0.63 -1.40 0.81 -0.69 1.60 0.81 2.74 2.26 2.74 3.43 0 2.16 -3.35 4.95 -8.68 7.26 -10.74 4.65 -27.60 7.87 -47.18 8.99 -3.86 0.20 -26.10 0.28 -31.10 0.08z"/>
  <path d="M180.35 232.81 c-0.71 -0.25 -1.17 -0.99 -4.32 -6.96 -4.34 -8.18 -7.39 -14.37 -8.07 -16.45 -0.79 -2.39 -1.07 -5.54 -0.66 -7.67 0.28 -1.47 0.58 -2.18 2.77 -6.30 1.78 -3.30 1.57 -4.60 -1.96 -11.91 -2.51 -5.26 -5.84 -12.85 -7.74 -17.75 -1.02 -2.62 -1.68 -3.91 -2.21 -4.44 l-0.76 -0.74 -26.74 -0.08 -26.74 -0.05 -0.86 0.58 c-1.02 0.69 -1.42 1.45 -3.81 7.16 -2.01 4.77 -3.43 7.95 -6.68 14.65 -3.20 6.68 -3.55 7.72 -3.55 10.61 0 1.93 0.18 3.02 0.81 5.33 1.90 6.96 1.70 13.36 -0.56 18.74 -1.35 3.17 -4.09 7.06 -5.51 7.79 -0.61 0.33 -2.49 0.36 -12.97 0.23 -6.86 -0.10 -12.39 -0.28 -12.57 -0.41 -0.91 -0.74 -0.56 -7.64 0.69 -12.52 1.47 -5.84 3.94 -10.51 7.59 -14.40 2.54 -2.69 5.33 -4.62 9.09 -6.27 6.47 -2.87 6.83 -3.20 9.83 -9.12 2.87 -5.74 5.46 -11.30 7.13 -15.51 1.65 -4.14 1.80 -5.51 0.74 -6.35 -0.66 -0.51 -0.99 -0.53 -7.44 -0.53 -4.09 0 -7.13 -0.10 -7.74 -0.28 -2.06 -0.56 -3.12 -2.54 -2.36 -4.37 0.79 -1.83 0.66 -1.80 11.50 -1.96 11.15 -0.15 10.59 -0.03 11.83 -2.54 1.80 -3.73 7.95 -21.07 10.13 -28.67 1.57 -5.48 3.94 -15.03 4.16 -16.91 0.23 -1.68 -0.18 -2.84 -1.07 -3.20 -0.33 -0.13 -2.49 -0.23 -4.80 -0.23 -4.62 0 -5.51 -0.20 -6.40 -1.45 -1.17 -1.65 -0.81 -3.66 0.89 -4.80 0.76 -0.51 1.22 -0.56 6.73 -0.66 6.58 -0.13 7.19 -0.28 7.90 -1.78 1.73 -3.66 7.69 -40.09 7.87 -48.12 0.05 -1.60 -0.03 -1.90 -0.53 -2.41 -0.56 -0.56 -0.76 -0.58 -6.09 -0.71 -6.12 -0.15 -6.42 -0.23 -7.41 -1.85 -0.96 -1.55 -0.36 -3.63 1.29 -4.62 0.79 -0.46 1.45 -0.53 6.73 -0.63 6.50 -0.15 6.65 -0.18 7.19 -1.88 0.15 -0.43 0.51 -4.90 0.79 -9.93 0.28 -5.03 0.63 -9.70 0.76 -10.38 0.51 -2.46 1.57 -3.45 3.66 -3.45 1.40 0 2.51 0.96 2.92 2.46 0.28 0.99 0.66 5.81 1.29 16.55 0.30 5.05 0.53 5.87 1.70 6.32 0.41 0.15 2.92 0.30 5.92 0.36 4.42 0.08 5.33 0.15 6.04 0.53 2.23 1.22 2.46 4.52 0.38 5.92 -0.61 0.41 -1.40 0.51 -6.09 0.63 -5.89 0.15 -6.22 0.25 -6.50 1.70 -0.30 1.47 1.07 13.03 2.74 23.41 1.80 11.04 4.57 24.71 5.31 26.10 0.79 1.50 1.42 1.65 7.95 1.78 5.10 0.10 5.99 0.18 6.65 0.58 1.63 0.99 2.08 2.62 1.24 4.27 -0.96 1.88 -1.57 2.06 -7.01 2.06 l-4.67 0 -0.76 0.76 c-0.74 0.74 -0.76 0.86 -0.61 2.26 0.41 3.48 4.04 17.01 6.60 24.53 2.62 7.74 7.44 20.87 8.18 22.27 0.84 1.60 0.76 1.60 11.60 1.73 l9.88 0.13 0.86 0.94 c0.69 0.76 0.86 1.17 0.86 1.98 0 1.35 -0.56 2.41 -1.60 2.97 -0.71 0.41 -1.78 0.48 -8.46 0.58 -7.08 0.13 -7.72 0.15 -8.20 0.61 -1.09 0.99 -0.71 2.44 2.82 10.69 3.35 7.85 6.80 14.75 8.05 16.17 1.37 1.55 3 2.31 6.86 3.28 5.48 1.35 7.97 2.89 9.70 6.14 0.46 0.86 2.13 5.13 3.73 9.45 7.67 20.90 7.19 19.42 6.65 20.06 -0.48 0.58 -1.65 0.48 -2.08 -0.18 -0.43 -0.69 -4.60 -10.33 -7.57 -17.60 -1.14 -2.79 -2.31 -5.46 -2.59 -5.92 -0.63 -1.04 -2.06 -1.98 -3.28 -2.21 -1.19 -0.23 -3.15 0.69 -3.83 1.75 -1.07 1.70 -0.48 3.73 4.32 15.26 5.31 12.80 5.23 12.49 3.48 13.08 -1.88 0.61 -1.45 1.29 -7.74 -12.47 -2.36 -5.13 -4.57 -9.80 -4.93 -10.33 -0.96 -1.52 -2.06 -2.21 -3.61 -2.21 -1.02 0 -1.47 0.15 -2.21 0.71 -1.35 1.02 -1.80 2.01 -1.63 3.63 0.15 1.37 0.48 2.21 5.87 14.68 1.63 3.76 2.95 7.01 2.89 7.21 -0.10 0.51 -0.96 0.79 -1.65 0.53z m-28.06 -79.09 c1.19 -0.23 1.83 -0.96 1.83 -2.11 0 -0.56 -0.63 -2.87 -1.42 -5.13 -7.82 -22.78 -9.75 -29.02 -11.65 -37.68 -1.09 -4.95 -1.27 -5.38 -2.26 -5.99 -0.74 -0.43 -1.40 -0.48 -8.35 -0.48 -8.05 0 -8.68 0.08 -9.32 1.27 -0.15 0.28 -0.71 2.41 -1.27 4.75 -1.40 6.07 -2.84 11.32 -4.70 17.32 -1.47 4.72 -2.44 7.57 -7.08 20.97 -0.79 2.23 -1.42 4.39 -1.42 4.82 0.03 1.09 0.76 1.93 1.93 2.16 1.19 0.23 42.61 0.33 43.72 0.10z m-16.73 -58.88 c0.41 -0.20 0.86 -0.71 1.04 -1.17 0.36 -0.86 0.33 -1.12 -2.92 -18.64 -0.61 -3.35 -1.29 -7.34 -1.52 -8.89 -0.51 -3.45 -1.17 -4.39 -2.26 -3.20 -0.30 0.33 -0.61 1.57 -0.94 4.01 -0.61 4.14 -2.95 16.99 -4.06 22.29 -1.22 5.76 -1.07 5.94 5.56 5.97 3.35 0 4.57 -0.08 5.10 -0.38z"/>
 </g>
</svg>