<svg width="20" height="20" viewBox="0 0 20 20" fill="none" xmlns="http://www.w3.org/2000/svg">
<path d="M13.3333 10.834H15C15.9208 10.834 16.6667 11.5798 16.6667 12.5007V12.5007C16.6667 13.4215 15.9208 14.1673 15 14.1673H5.00001C4.07918 14.1673 3.33334 14.9132 3.33334 15.834V15.834C3.33334 16.7548 4.07918 17.5007 5.00001 17.5007H8.33334" stroke="#FDFDFD" stroke-width="1.5" stroke-linecap="round" stroke-linejoin="round"/>
<path fill-rule="evenodd" clip-rule="evenodd" d="M9.16668 10.8333C9.16668 10.8333 12.5 8.17167 12.5 5.74083C12.5 3.95083 11.0075 2.5 9.16668 2.5C7.32584 2.5 5.83334 3.95083 5.83334 5.74083C5.83334 8.17167 9.16668 10.8333 9.16668 10.8333Z" stroke="#FDFDFD" stroke-width="1.5" stroke-linecap="round" stroke-linejoin="round"/>
<path d="M9.16751 5.60143C9.29918 5.60143 9.40501 5.7056 9.40501 5.8331C9.40501 5.9606 9.29835 6.06393 9.16668 6.06393C9.03501 6.06393 8.92918 5.9606 8.92918 5.83227C8.92835 5.7056 9.03501 5.60143 9.16751 5.60143" stroke="#FDFDFD" stroke-width="1.5" stroke-linecap="round" stroke-linejoin="round"/>
</svg>
